<?xml version="1.0"?>
<svg version="1.1" xmlns="http://www.w3.org/2000/svg" width="400" height="200" style="border: dashed 2px #aaa"><path fill="#ffffff" d="M16.395263671875,108.80004882812q-0.054931640625-0.736083984375,0.087890625-1.351318359375t0.5712890625-0.999755859375t1.373291015625-0.384521484375q0.2197265625,0,0.538330078125,0.054931640625t0.626220703125,0.142822265625t0.516357421875,0.263671875t0.208740234375,0.4833984375l0,2.48291015625q0.85693359375-0.98876953125,1.86767578125-1.417236328125t2.30712890625-0.428466796875q0.98876953125,0,1.95556640625,0.450439453125t1.82373046875,1.197509765625t1.483154296875,1.64794921875t0.911865234375,1.8017578125q0.17578125-0.81298828125,0.3955078125-1.988525390625t0.648193359375-2.252197265625t1.131591796875-1.845703125t1.86767578125-0.76904296875q1.25244140625,0,2.109375,0.90087890625t1.395263671875,2.340087890625t0.81298828125,3.218994140625t0.406494140625,3.515625t0.1318359375,3.240966796875l0,2.362060546875q0,0.263671875-0.19775390625,0.428466796875t-0.494384765625,0.252685546875t-0.615234375,0.10986328125t-0.494384765625,0.02197265625q-0.68115234375,0-1.241455078125-0.208740234375t-0.560302734375-1.065673828125l0-1.9775390625t-0.0439453125-2.559814453125t-0.15380859375-2.74658203125t-0.28564453125-2.493896484375t-0.450439453125-1.8017578125t-0.670166015625-0.703125q-0.54931640625,0-0.791015625,0.615234375t-0.406494140625,1.56005859375t-0.252685546875,1.99951171875t-0.24169921875,1.99951171875t-0.494384765625,1.549072265625t-0.933837890625,0.604248046875q-0.63720703125,0-1.12060546875-0.604248046875t-0.955810546875-1.505126953125t-0.94482421875-1.93359375t-1.043701171875-1.93359375q-0.5712890625-0.9228515625-1.23046875-1.494140625q-0.59326171875-0.54931640625-1.34033203125-0.52734375l-0.10986328125,0q-0.98876953125,0.0439453125-1.549072265625,0.714111328125t-0.85693359375,1.636962890625t-0.362548828125,2.076416015625t-0.06591796875,1.944580078125q0,0.791015625,0.1318359375,1.845703125q0.087890625,0.703125,0.087890625,1.34033203125q0,0.32958984375-0.02197265625,0.63720703125q-0.06591796875,0.9228515625-0.494384765625,1.549072265625t-1.593017578125,0.626220703125q-0.439453125,0-1.0986328125-0.087890625t-0.87890625-0.59326171875q-0.50537109375-0.90087890625-0.76904296875-2.274169921875t-0.3955078125-2.83447265625t-0.15380859375-2.900390625t-0.02197265625-2.471923828125q0-0.72509765625-0.054931640625-1.461181640625z M44.106518554688,114.30419921875q0-1.494140625,0.406494140625-2.87841796875t1.219482421875-2.471923828125t2.032470703125-1.73583984375t2.823486328125-0.648193359375q0.98876953125,0,2.186279296875,0.296630859375t2.252197265625,0.87890625t1.7578125,1.483154296875t0.703125,2.0654296875q0,0.54931640625-0.186767578125,0.8349609375t-0.758056640625,0.28564453125l-0.24169921875-0.0439453125q0.63720703125,1.7138671875,1.0986328125,3.515625t0.90087890625,3.603515625q0.17578125,0.3515625,0.263671875,0.626220703125t0.087890625,0.538330078125q0,0.3515625-0.19775390625,0.582275390625t-0.516357421875,0.340576171875t-0.6591796875,0.15380859375t-0.604248046875,0.0439453125q-0.94482421875,0-1.417236328125-0.32958984375t-0.68115234375-0.90087890625t-0.252685546875-1.285400390625t-0.17578125-1.439208984375q-0.263671875,0.85693359375-0.692138671875,1.669921875t-1.0107421875,1.461181640625t-1.373291015625,1.03271484375t-1.77978515625,0.384521484375q-1.4501953125,0-2.43896484375-0.8349609375t-1.593017578125-2.054443359375t-0.87890625-2.603759765625t-0.274658203125-2.57080078125z M47.226635742187,113.99658203125q0,0.81298828125,0.10986328125,1.7138671875t0.362548828125,1.77978515625t0.648193359375,1.658935546875t0.98876953125,1.373291015625q1.07666015625-1.16455078125,1.593017578125-2.83447265625t0.9228515625-3.218994140625t0.9228515625-2.65869140625t1.593017578125-1.109619140625q0.68115234375,0,1.142578125,0.24169921875q-0.2197265625-0.54931640625-0.72509765625-1.065673828125t-1.131591796875-0.94482421875t-1.29638671875-0.703125t-1.263427734375-0.274658203125q-0.17578125,0-0.406494140625,0.054931640625t-0.362548828125,0.010986328125q-0.90087890625,0.263671875-1.483154296875,0.911865234375t-0.94482421875,1.527099609375t-0.516357421875,1.8017578125t-0.15380859375,1.73583984375z M63.149560546875,122.1044921875q0-0.63720703125,0.054931640625-1.34033203125t0.098876953125-1.318359375l0.1318359375-3.2958984375q0.2197265625-3.955078125,0.538330078125-7.7783203125t0.538330078125-7.734375q0.1318359375-2.1533203125,0.19775390625-4.229736328125t0.19775390625-4.229736328125q-0.087890625-0.17578125-0.087890625-0.24169921875q0-0.3076171875,0.230712890625-0.4833984375t0.538330078125-0.296630859375t0.648193359375-0.164794921875t0.516357421875-0.0439453125l0.50537109375,0q0.68115234375,0.087890625,0.98876953125,0.428466796875t0.3955078125,0.81298828125t0.0439453125,1.0107421875t-0.0439453125,0.999755859375q0,3.18603515625-0.15380859375,6.492919921875t-0.3515625,6.6357421875t-0.362548828125,6.65771484375t-0.164794921875,6.580810546875l0,1.5380859375q0,1.03271484375-0.582275390625,1.3623046875t-1.614990234375,0.32958984375q-0.90087890625,0-1.58203125-0.3955078125t-0.68115234375-1.29638671875z M73.227758789063,114.30419921875q0-1.494140625,0.406494140625-2.87841796875t1.219482421875-2.471923828125t2.032470703125-1.73583984375t2.823486328125-0.648193359375q0.98876953125,0,2.186279296875,0.296630859375t2.252197265625,0.87890625t1.7578125,1.483154296875t0.703125,2.0654296875q0,0.54931640625-0.186767578125,0.8349609375t-0.758056640625,0.28564453125l-0.24169921875-0.0439453125q0.63720703125,1.7138671875,1.0986328125,3.515625t0.90087890625,3.603515625q0.17578125,0.3515625,0.263671875,0.626220703125t0.087890625,0.538330078125q0,0.3515625-0.19775390625,0.582275390625t-0.516357421875,0.340576171875t-0.6591796875,0.15380859375t-0.604248046875,0.0439453125q-0.94482421875,0-1.417236328125-0.32958984375t-0.68115234375-0.90087890625t-0.252685546875-1.285400390625t-0.17578125-1.439208984375q-0.263671875,0.85693359375-0.692138671875,1.669921875t-1.0107421875,1.461181640625t-1.373291015625,1.03271484375t-1.77978515625,0.384521484375q-1.4501953125,0-2.43896484375-0.8349609375t-1.593017578125-2.054443359375t-0.87890625-2.603759765625t-0.274658203125-2.57080078125z M76.347875976563,113.99658203125q0,0.81298828125,0.10986328125,1.7138671875t0.362548828125,1.77978515625t0.648193359375,1.658935546875t0.98876953125,1.373291015625q1.07666015625-1.16455078125,1.593017578125-2.83447265625t0.9228515625-3.218994140625t0.9228515625-2.65869140625t1.593017578125-1.109619140625q0.68115234375,0,1.142578125,0.24169921875q-0.2197265625-0.54931640625-0.72509765625-1.065673828125t-1.131591796875-0.94482421875t-1.29638671875-0.703125t-1.263427734375-0.274658203125q-0.17578125,0-0.406494140625,0.054931640625t-0.362548828125,0.010986328125q-0.90087890625,0.263671875-1.483154296875,0.911865234375t-0.94482421875,1.527099609375t-0.516357421875,1.8017578125t-0.15380859375,1.73583984375z M92.27080078125,113.77685546875q0-2.021484375,0.472412109375-3.966064453125t0.802001953125-3.878173828125q0.087890625-0.50537109375,0.692138671875-0.626220703125t1.021728515625-0.120849609375q0.72509765625,0,1.16455078125,0.2197265625q0.17578125,0.087890625,0.32958984375,0.19775390625t0.15380859375,0.28564453125q0,1.8896484375-0.450439453125,3.69140625t-0.450439453125,3.8232421875q0,0.68115234375,0.098876953125,1.285400390625t0.186767578125,1.197509765625l0.1318359375,0.63720703125q0,0.17578125,0.02197265625,0.3076171875t0.06591796875,0.3076171875q0,0.3955078125-0.560302734375,0.538330078125t-0.977783203125,0.142822265625q-0.63720703125,0-1.175537109375-0.252685546875t-0.845947265625-0.867919921875l-0.3076171875-0.63720703125q-0.263671875-0.50537109375-0.263671875-1.131591796875t-0.10986328125-1.153564453125z M93.67705078125,100.54931640625l0-0.41748046875q0-1.03271484375,0.516357421875-1.845703125t1.549072265625-0.81298828125q0.1318359375,0,0.252685546875,0.02197265625t0.252685546875,0.02197265625q0.263671875,0.0439453125,0.692138671875,0.208740234375t0.428466796875,0.516357421875l0,0.0439453125q-0.087890625,0.17578125-0.10986328125,0.362548828125t-0.10986328125,0.318603515625l0.0439453125-0.0439453125q-0.263671875,0.68115234375-0.428466796875,1.0986328125t-0.362548828125,0.670166015625t-0.494384765625,0.362548828125t-0.845947265625,0.10986328125q-0.087890625,0-0.3076171875-0.02197265625t-0.472412109375-0.087890625t-0.428466796875-0.17578125t-0.17578125-0.32958984375z M101.86560058594,123.22509765625l0.46142578125-0.54931640625q-0.087890625-3.69140625-0.19775390625-7.36083984375t-0.10986328125-7.294921875q0-4.50439453125,0.538330078125-8.712158203125t1.065673828125-8.624267578125q0.0439453125-0.263671875,0.252685546875-0.428466796875t0.516357421875-0.274658203125t0.626220703125-0.15380859375t0.582275390625-0.0439453125q0.3515625,0,0.87890625,0.1318359375t1.0546875,0.76904296875q0,0.2197265625,0.032958984375,0.384521484375t0.032958984375,0.384521484375q0,1.669921875-0.450439453125,3.58154296875t-0.604248046875,3.66943359375q-0.17578125,2.1533203125-0.24169921875,4.2626953125t-0.06591796875,4.28466796875l0.0439453125,1.93359375q0.439453125-0.54931640625,1.25244140625-1.40625t1.7578125-1.658935546875t1.8896484375-1.373291015625t1.7138671875-0.5712890625q1.16455078125,0,1.614990234375,0.6591796875t0.450439453125,1.73583984375q0,0.98876953125-0.428466796875,2.0654296875t-1.12060546875,2.098388671875t-1.571044921875,1.834716796875t-1.73583984375,1.20849609375q1.16455078125,1.4501953125,2.384033203125,2.7685546875t2.669677734375,2.48291015625l0,0.50537109375q-0.0439453125,0.2197265625-0.274658203125,0.32958984375t-0.50537109375,0.17578125t-0.538330078125,0.098876953125t-0.439453125,0.032958984375q-1.07666015625,0-2.076416015625-0.63720703125t-1.86767578125-1.56005859375t-1.636962890625-1.95556640625t-1.40625-1.8017578125q0.1318359375,2.52685546875,0.296630859375,5.042724609375t0.164794921875,5.042724609375q0,0.3076171875-0.274658203125,0.516357421875t-0.63720703125,0.318603515625t-0.736083984375,0.15380859375t-0.615234375,0.0439453125q-1.29638671875,0-1.834716796875-0.472412109375t-0.911865234375-1.636962890625z M106.36999511719,112.8759765625q0.54931640625,0,1.307373046875-0.472412109375t1.571044921875-1.175537109375t1.51611328125-1.483154296875t1.131591796875-1.483154296875t0.428466796875-1.131591796875t-0.59326171875-0.384521484375q-0.2197265625,0-0.90087890625,0.63720703125t-1.51611328125,1.56005859375t-1.669921875,1.99951171875t-1.2744140625,1.93359375z M119.65620117187,114.30419921875q0-1.494140625,0.406494140625-2.87841796875t1.219482421875-2.471923828125t2.032470703125-1.73583984375t2.823486328125-0.648193359375q0.98876953125,0,2.186279296875,0.296630859375t2.252197265625,0.87890625t1.7578125,1.483154296875t0.703125,2.0654296875q0,0.54931640625-0.186767578125,0.8349609375t-0.758056640625,0.28564453125l-0.24169921875-0.0439453125q0.63720703125,1.7138671875,1.0986328125,3.515625t0.90087890625,3.603515625q0.17578125,0.3515625,0.263671875,0.626220703125t0.087890625,0.538330078125q0,0.3515625-0.19775390625,0.582275390625t-0.516357421875,0.340576171875t-0.6591796875,0.15380859375t-0.604248046875,0.0439453125q-0.94482421875,0-1.417236328125-0.32958984375t-0.68115234375-0.90087890625t-0.252685546875-1.285400390625t-0.17578125-1.439208984375q-0.263671875,0.85693359375-0.692138671875,1.669921875t-1.0107421875,1.461181640625t-1.373291015625,1.03271484375t-1.77978515625,0.384521484375q-1.4501953125,0-2.43896484375-0.8349609375t-1.593017578125-2.054443359375t-0.87890625-2.603759765625t-0.274658203125-2.57080078125z M122.77631835937,113.99658203125q0,0.81298828125,0.10986328125,1.7138671875t0.362548828125,1.77978515625t0.648193359375,1.658935546875t0.98876953125,1.373291015625q1.07666015625-1.16455078125,1.593017578125-2.83447265625t0.9228515625-3.218994140625t0.9228515625-2.65869140625t1.593017578125-1.109619140625q0.68115234375,0,1.142578125,0.24169921875q-0.2197265625-0.54931640625-0.72509765625-1.065673828125t-1.131591796875-0.94482421875t-1.29638671875-0.703125t-1.263427734375-0.274658203125q-0.17578125,0-0.406494140625,0.054931640625t-0.362548828125,0.010986328125q-0.90087890625,0.263671875-1.483154296875,0.911865234375t-0.94482421875,1.527099609375t-0.516357421875,1.8017578125t-0.15380859375,1.73583984375z M147.261328125,108.63525390625q0-0.90087890625,0.52734375-1.549072265625t1.285400390625-1.0546875t1.658935546875-0.604248046875t1.669921875-0.19775390625q0.59326171875,0,1.58203125,0.17578125t1.93359375,0.52734375t1.636962890625,0.9228515625t0.692138671875,1.34033203125q0,0.3515625-0.263671875,0.626220703125t-0.54931640625,0.274658203125q-0.59326171875,0-1.07666015625-0.384521484375t-0.999755859375-0.81298828125t-1.131591796875-0.81298828125t-1.38427734375-0.384521484375t-1.395263671875,0.494384765625t-0.626220703125,1.307373046875q0,1.34033203125,0.94482421875,2.625732421875t2.076416015625,2.70263671875t2.076416015625,2.977294921875t0.94482421875,3.44970703125q0,0.81298828125-0.340576171875,1.373291015625t-0.90087890625,0.911865234375t-1.263427734375,0.538330078125t-1.3623046875,0.186767578125q-0.72509765625,0-1.69189453125-0.340576171875t-1.82373046875-0.90087890625t-1.439208984375-1.307373046875t-0.582275390625-1.56005859375q0-0.3955078125,0.560302734375-0.50537109375t0.823974609375-0.10986328125q0.1318359375,0,0.406494140625,0.087890625t0.538330078125,0.19775390625t0.472412109375,0.24169921875t0.164794921875,0.28564453125q0.2197265625,0.263671875,0.670166015625,0.780029296875t0.90087890625,0.8349609375t0.791015625,0.230712890625t0.340576171875-0.98876953125q0-1.7138671875-0.9228515625-3.153076171875t-2.010498046875-2.8125t-2.010498046875-2.724609375t-0.9228515625-2.889404296875z M161.84392089844,112.37060546875q0-0.439453125,0.098876953125-1.16455078125t0.230712890625-1.439208984375t0.3076171875-1.329345703125t0.41748046875-0.791015625q0.17578125-0.17578125,0.604248046875-0.3515625t0.90087890625-0.252685546875t0.87890625,0.06591796875t0.494384765625,0.582275390625q-0.3076171875,0.3955078125-0.560302734375,1.351318359375t-0.384521484375,2.120361328125q-0.10986328125,0.98876953125-0.10986328125,2.04345703125l0,0.37353515625q0.02197265625,1.23046875,0.2197265625,2.26318359375t0.604248046875,1.702880859375t1.131591796875,0.670166015625q1.5380859375,0,2.8125-1.417236328125t2.26318359375-3.460693359375t1.73583984375-4.339599609375t1.2744140625-4.010009765625q0.1318359375-0.50537109375,0.626220703125-0.68115234375t1.065673828125-0.120849609375t1.021728515625,0.274658203125t0.538330078125,0.52734375q-0.439453125,3.69140625-0.692138671875,7.3828125t-0.252685546875,7.4267578125q0,0.72509765625,0.06591796875,1.329345703125t-0.06591796875,1.03271484375t-0.582275390625,0.68115234375t-1.439208984375,0.252685546875q-0.2197265625,0-0.560302734375-0.0439453125t-0.703125-0.142822265625t-0.615234375-0.296630859375t-0.252685546875-0.46142578125q0-1.6259765625,0.120849609375-3.33984375t0.340576171875-3.31787109375q-0.59326171875,0.85693359375-1.307373046875,1.702880859375t-1.571044921875,1.527099609375t-1.845703125,1.087646484375t-2.13134765625,0.406494140625q-1.6259765625,0-2.559814453125-0.76904296875t-1.40625-1.922607421875t-0.59326171875-2.515869140625t-0.120849609375-2.63671875z M182.51293945313,114.04052734375q0-1.7138671875,0.362548828125-3.109130859375t1.153564453125-2.362060546875t2.076416015625-1.505126953125t3.131103515625-0.538330078125q1.03271484375,0,2.109375,0.274658203125t1.845703125,1.021728515625q0-0.439453125,0.087890625-1.812744140625t0.2197265625-3.197021484375t0.274658203125-3.8232421875t0.252685546875-3.71337890625t0.19775390625-2.87841796875t0.1318359375-1.318359375q0.2197265625-0.63720703125,0.81298828125-0.758056640625t1.12060546875-0.120849609375q1.38427734375,0,1.702880859375,0.439453125t0.318603515625,1.7578125q0,4.81201171875-0.428466796875,9.580078125t-0.428466796875,9.580078125q0,3.09814453125,0.120849609375,6.229248046875t0.867919921875,6.163330078125l0.24169921875,0.2197265625l0.1318359375,0.3955078125l-0.32958984375,0.50537109375q-0.8349609375,0.52734375-1.93359375,0.52734375l-0.087890625,0q-1.12060546875,0-2.0654296875-0.52734375q-0.3515625-0.2197265625-0.582275390625-1.307373046875t-0.362548828125-2.39501953125t-0.19775390625-2.515869140625t-0.10986328125-1.7138671875q-0.76904296875,1.7578125-2.098388671875,3.021240234375t-3.350830078125,1.263427734375q-1.58203125,0-2.5927734375-0.68115234375t-1.571044921875-1.73583984375t-0.791015625-2.362060546875t-0.230712890625-2.603759765625z M185.17163085938,114.17236328125q0,0.50537109375,0.120849609375,1.494140625t0.384521484375,1.9775390625t0.736083984375,1.7578125t1.241455078125,0.76904296875q1.03271484375-0.50537109375,1.86767578125-1.680908203125t1.439208984375-2.5927734375t0.94482421875-2.83447265625t0.340576171875-2.449951171875q0-1.29638671875-0.94482421875-2.1533203125t-2.26318359375-0.85693359375q-0.3955078125,0-0.802001953125,0.15380859375t-0.758056640625,0.3515625q-0.81298828125,0.76904296875-1.263427734375,1.395263671875t-0.68115234375,1.29638671875t-0.296630859375,1.483154296875t-0.06591796875,1.8896484375z"/><path fill="#" d=""/></svg>
